<svg xmlns="http://www.w3.org/2000/svg" width="24" height="24" viewBox="0 0 24 24" fill="currentColor">
  <path d="M12 2C12 2 6 7.4 6 13C6 16.31 8.69 19 12 19C15.31 19 18 16.31 18 13C18 7.4 12 2 12 2ZM12 14.5C10.62 14.5 9.5 13.38 9.5 12C9.5 10.62 10.62 9.5 12 9.5C13.38 9.5 14.5 10.62 14.5 12C14.5 13.38 13.38 14.5 12 14.5ZM7.26 19.33C6.48 19.68 6 20.48 6 21.36V22H11.5V19.33C9.72 19.33 8.32 19.33 7.26 19.33ZM16.74 19.33C15.68 19.33 14.28 19.33 12.5V22H18V21.36C18 20.48 17.52 19.68 16.74 19.33Z"/>
</svg>
